# xmcd
#
# Track frame offsets:
# 150
# 13316
# 27403
# 41358
# 52460
# 66590
# 83811
# 99948
# 114895
# 128728
# 143509
# 167851
# 189123
# 203453
# 221483
# 240309
# 257073
# 278567
# 293659
# 307001
#
# Disc length: 4299 seconds
#
# Revision: 1
# Processed by: cddbd v1.5.1PL0 Copyright (c) Steve Scherf et al.
# Submitted via: CedeCatalogueitor 2.6.0.5 http://personales.ya.com/cdcatalogueitor
#
DISCID=1610c914
DTITLE=Macarena Del Rio - RADIOLÉ
DYEAR=1998
DGENRE=Canción Española
TTITLE0=Juan Y Rafael
TTITLE1=La "Seña" Gabriela
TTITLE2=A Boda Estan Tocando
TTITLE3=¡Morito!
TTITLE4=¡Ay! Cantaora
TTITLE5=Un Castillo De Arena
TTITLE6=Como Me Llamo Rosario
TTITLE7=Plegaria Andaluza
TTITLE8=Que Sevilla Se Acuerde
TTITLE9=La Caracola
TTITLE10=Sombra De Mi Sombra
TTITLE11=Rosario De Besos
TTITLE12=Con Ruedas De Molino
TTITLE13=Salve A La Giralda
TTITLE14=Ay, Soleda
TTITLE15=Mi Niño Macareno
TTITLE16=El útimo Whisky
TTITLE17=Y A Ver Si Me Detienes
TTITLE18=Canela Y Limón
TTITLE19=Que Reviente Quien Le Duela
EXTD=
EXTT0=
EXTT1=
EXTT2=
EXTT3=
EXTT4=
EXTT5=
EXTT6=
EXTT7=
EXTT8=
EXTT9=
EXTT10=
EXTT11=
EXTT12=
EXTT13=
EXTT14=
EXTT15=
EXTT16=
EXTT17=
EXTT18=
EXTT19=
PLAYORDER=
